PathFileType	4	(X/Y/Z)	/Users/itak/Documents/Research/Walk-IL/dataset/trc/00184_00008.trc
DataRate	CameraRate	NumFrames	NumMarkers	Units	OrigDataRate	OrigDataStartFrame	OrigNumFrames
100.000000	100.000000	4	53	mm	100.000000	493	789
Frame#	Time	RPSI			LPSI			L3			STRN			T10			C7			CLAV			RBAK			LBAK			LSHO			LUPA			LAEL			LAOL			LWTS			LWPS			LFRA			LIFD			LHPS			LHTS			RSHO			RUPA			RAEL			RAOL			RWTS			RWPS			RFRA			RIFD			RHTS			RHPS			RBHD			LFHD			RFHD			LBHD			LHIP			RHIP			RASI			LASI			LKNE			LTHI			LANK			LTIP			LTOE			LMT1			LMT5			LHEE			RKNE			RTHI			RANK			RTIP			RTOE			RMT1			RMT5			RHEE			
		X1	Y1	Z1	X2	Y2	Z2	X3	Y3	Z3	X4	Y4	Z4	X5	Y5	Z5	X6	Y6	Z6	X7	Y7	Z7	X8	Y8	Z8	X9	Y9	Z9	X10	Y10	Z10	X11	Y11	Z11	X12	Y12	Z12	X13	Y13	Z13	X14	Y14	Z14	X15	Y15	Z15	X16	Y16	Z16	X17	Y17	Z17	X18	Y18	Z18	X19	Y19	Z19	X20	Y20	Z20	X21	Y21	Z21	X22	Y22	Z22	X23	Y23	Z23	X24	Y24	Z24	X25	Y25	Z25	X26	Y26	Z26	X27	Y27	Z27	X28	Y28	Z28	X29	Y29	Z29	X30	Y30	Z30	X31	Y31	Z31	X32	Y32	Z32	X33	Y33	Z33	X34	Y34	Z34	X35	Y35	Z35	X36	Y36	Z36	X37	Y37	Z37	X38	Y38	Z38	X39	Y39	Z39	X40	Y40	Z40	X41	Y41	Z41	X42	Y42	Z42	X43	Y43	Z43	X44	Y44	Z44	X45	Y45	Z45	X46	Y46	Z46	X47	Y47	Z47	X48	Y48	Z48	X49	Y49	Z49	X50	Y50	Z50	X51	Y51	Z51	X52	Y52	Z52	X53	Y53	Z53	

494	4.93	-235.2898254394531	1052.426635742188	-779.4476318359375	-186.4351806640625	1046.87548828125	-665.5732421875	-210.7637176513672	1086.61279296875	-722.2261352539062	-448.3489379882812	1295.69921875	-615.630859375	-171.1880035400391	1240.901611328125	-721.8314819335938	-222.2386932373047	1508.940673828125	-679.217529296875	-413.8575744628906	1407.753295898438	-616.0846557617188	-199.2837219238281	1337.89501953125	-808.1875	-179.5868988037109	1482.369750976562	-590.00439453125	-227.0983581542969	1466.955200195312	-489.256591796875	-169.9157867431641	1333.974487304688	-436.9909973144531	-171.0042114257812	1118.5556640625	-423.3034973144531	-158.8485107421875	1104.436889648438	-510.3483581542969	-258.9110107421875	876.0702514648438	-403.9251403808594	-167.1488494873047	867.1212158203125	-406.8984069824219	-167.8586273193359	1009.552856445312	-406.8003845214844	-255.0296478271484	690.2774658203125	-428.6723022460938	-178.4322509765625	795.7073974609375	-402.5266418457031	-247.8842315673828	795.4983520507812	-384.5786743164062	-340.1414794921875	1495.2333984375	-827.6405029296875	-340.5144348144531	1433.352783203125	-900.762451171875	-320.8022766113281	1155.154663085938	-980.0946655273438	-295.6826477050781	1141.097412109375	-887.0449829101562	-438.9285583496094	917.0216064453125	-955.63916015625	-376.7362670898438	909.9738159179688	-1016.249633789062	-346.6228637695312	1083.010864257812	-999.2095947265625	-431.337890625	728.0841064453125	-940.0382690429688	-458.8703308105469	820.7589721679688	-965.7412109375	-398.0688171386719	824.9234619140625	-1014.158569335938	-339.7286682128906	1686.6435546875	-709.4309692382812	-391.916259765625	1695.60595703125	-497.3059692382812	-471.6221618652344	1709.214111328125	-596.490234375	-247.7418212890625	1682.4736328125	-607.6962890625	-231.2565307617188	972.1824951171875	-517.7826538085938	-431.1427612304688	1015.446472167969	-829.8341674804688	-476.5516662597656	1039.585693359375	-744.3627319335938	-365.7757263183594	1016.96240234375	-512.3086547851562	-305.6717224121094	466.432861328125	-522.3438110351562	-289.5073547363281	614.98681640625	-510.2383117675781	36.30850219726562	214.8697509765625	-732.0757446289062	-137.5402069091797	328.9685668945312	-613.070068359375	-93.41082763671875	53.47505950927734	-677.3925170898438	-78.48087310791016	78.17591094970703	-734.2003173828125	-2.330034255981445	135.4797058105469	-660.1214599609375	30.50098991394043	244.220458984375	-809.2627563476562	-546.3737182617188	527.1651000976562	-746.7974243164062	-521.1781616210938	795.83544921875	-794.3939819335938	-487.3568115234375	25.74007225036621	-793.9819946289062	-556.0140380859375	401.167724609375	-726.2621459960938	-641.5254516601562	45.65850448608398	-636.3890991210938	-573.4285888671875	51.95975112915039	-629.4481201171875	-594.4542846679688	26.86598205566406	-753.9127807617188	-407.3633728027344	36.06330108642578	-767.49951171875	
495	4.94	-244.1848602294922	1053.910522460938	-779.0790405273438	-194.1772766113281	1048.074340820312	-665.819091796875	-219.2945709228516	1088.005615234375	-722.2011108398438	-455.228271484375	1296.763427734375	-611.4451293945312	-179.9982757568359	1242.728637695312	-722.5995483398438	-231.0758819580078	1510.545532226562	-678.7040405273438	-420.9946594238281	1408.908569335938	-612.2987060546875	-209.7300109863281	1339.922119140625	-808.464599609375	-186.4854583740234	1483.993896484375	-590.423095703125	-232.1507110595703	1468.343139648438	-488.8521118164062	-173.7784881591797	1335.564575195312	-437.6834411621094	-174.1494445800781	1120.235229492188	-422.8246154785156	-163.2748870849609	1105.773681640625	-509.9454956054688	-263.3775024414062	878.4030151367188	-401.1874694824219	-171.7471466064453	868.732177734375	-405.2640686035156	-171.3577880859375	1011.136596679688	-405.8819274902344	-261.3060913085938	692.5427856445312	-425.0068664550781	-183.5434875488281	797.4444580078125	-400.3538818359375	-252.7320861816406	797.912353515625	-381.54541015625	-351.44921875	1496.891723632812	-825.0241088867188	-353.1765747070312	1435.135131835938	-898.31103515625	-334.8763427734375	1157.159057617188	-979.2307739257812	-307.6025085449219	1142.892211914062	-886.8570556640625	-454.0899047851562	919.9505615234375	-951.9754028320312	-393.1139526367188	912.0919189453125	-1013.720886230469	-361.386474609375	1084.999389648438	-997.7699584960938	-448.6753540039062	731.138916015625	-936.146728515625	-475.4222412109375	824.102783203125	-961.5887451171875	-415.3291931152344	827.2683715820312	-1011.090209960938	-349.2550659179688	1688.240356445312	-706.4823608398438	-397.9839477539062	1696.69091796875	-493.6678161621094	-479.3023986816406	1710.424560546875	-591.4050903320312	-255.4496765136719	1683.897216796875	-606.3740234375	-236.7548675537109	973.692138671875	-517.1157836914062	-440.8200073242188	1016.796325683594	-826.571044921875	-485.3779602050781	1040.855224609375	-740.421875	-371.1035766601562	1018.733642578125	-509.8829650878906	-321.0218811035156	468.6929626464844	-515.0999755859375	-301.7275390625	616.9865112304688	-505.0493469238281	17.2738151550293	214.9478149414062	-728.1661987304688	-154.9150238037109	330.3834533691406	-607.4310913085938	-114.8200454711914	56.00626373291016	-670.4927368164062	-99.33210754394531	79.823974609375	-727.850830078125	-22.09256935119629	136.6444549560547	-655.0330810546875	11.39916801452637	243.7878875732422	-805.7086181640625	-550.4047241210938	526.6466064453125	-745.550537109375	-528.8145751953125	796.3009643554688	-790.8035888671875	-487.3719787597656	25.75786972045898	-793.9647216796875	-558.6483154296875	400.519287109375	-725.6103515625	-641.584716796875	45.54709243774414	-636.3560180664062	-573.44384765625	51.94670104980469	-629.44091796875	-594.447021484375	26.83525657653809	-753.943115234375	-407.4171447753906	36.24181747436523	-767.5057373046875	
496	4.95	-252.8170928955078	1055.370483398438	-778.5616455078125	-201.8167266845703	1049.182983398438	-665.8463745117188	-227.6487579345703	1089.330932617188	-722.0155639648438	-461.8887634277344	1297.826538085938	-607.2614135742188	-188.6537475585938	1244.519653320312	-723.2595825195312	-239.6775970458984	1512.1708984375	-678.1837158203125	-427.9139099121094	1410.072021484375	-608.4789428710938	-220.0524597167969	1341.89892578125	-808.60498046875	-193.2356414794922	1485.614379882812	-590.8268432617188	-237.023681640625	1469.732177734375	-488.4761047363281	-177.4283294677734	1337.157348632812	-438.4413452148438	-177.0512847900391	1121.912353515625	-422.5286865234375	-167.5572052001953	1107.109252929688	-509.7189331054688	-267.9720153808594	880.9125366210938	-398.5046081542969	-176.5315399169922	870.312744140625	-403.7247314453125	-174.7687072753906	1012.692687988281	-405.1110534667969	-268.1728820800781	695.0068359375	-421.1612854003906	-188.9936828613281	799.1861572265625	-398.2152404785156	-257.9069519042969	800.526123046875	-378.4969482421875	-362.5743713378906	1498.523193359375	-822.2906494140625	-365.6802368164062	1436.898681640625	-895.712890625	-349.0558471679688	1159.171508789062	-978.2044677734375	-319.5017395019531	1144.731323242188	-886.6038208007812	-469.3209533691406	922.9172973632812	-948.1751098632812	-409.6364135742188	914.3074340820312	-1011.084838867188	-376.2683715820312	1087.03955078125	-996.1729125976562	-465.9678955078125	734.2349853515625	-932.15869140625	-492.0206604003906	827.4822998046875	-957.2907104492188	-432.7082214355469	829.711181640625	-1007.925231933594	-358.7472534179688	1689.784545898438	-703.4212036132812	-403.8625183105469	1697.646362304688	-489.9255065917969	-486.8563842773438	1711.455078125	-586.1679077148438	-263.0913696289062	1685.3291015625	-605.0167846679688	-242.1574859619141	975.26318359375	-516.2882690429688	-450.244873046875	1018.0869140625	-823.3052978515625	-494.0003356933594	1042.169677734375	-736.54052734375	-376.3222351074219	1020.513610839844	-507.5052795410156	-335.9411010742188	471.171630859375	-507.8155517578125	-313.6754455566406	619.1298217773438	-499.7185363769531	-2.190266609191895	213.7069091796875	-723.7315673828125	-172.289794921875	331.2785034179688	-601.5211791992188	-137.4634399414062	58.18130874633789	-663.548583984375	-121.087043762207	80.74180603027344	-721.5203247070312	-42.70690155029297	136.5052337646484	-649.6017456054688	-7.934881210327148	242.2476196289062	-801.5593872070312	-554.125732421875	526.1502685546875	-744.4085083007812	-536.2523193359375	796.70703125	-787.3594360351562	-487.3639526367188	25.79342651367188	-793.9344482421875	-561.0369873046875	399.9302673339844	-725.0824584960938	-641.66064453125	45.47317123413086	-636.36181640625	-573.4927368164062	51.9628791809082	-629.4527587890625	-594.4375610351562	26.80774307250977	-753.9786376953125	-407.4499206542969	36.4629020690918	-767.5043334960938	
497	4.96	-261.2166137695312	1056.8115234375	-777.8952026367188	-209.3750610351562	1050.188110351562	-665.664794921875	-235.8574066162109	1090.590698242188	-721.66845703125	-468.3346862792969	1298.897827148438	-603.0862426757812	-197.166748046875	1246.269287109375	-723.7981567382812	-248.0480041503906	1513.802490234375	-677.6365966796875	-434.6229553222656	1411.248291015625	-604.6356201171875	-230.2456359863281	1343.813598632812	-808.5980224609375	-199.8438568115234	1487.230590820312	-591.1993408203125	-241.7412872314453	1471.133544921875	-488.1213684082031	-180.8922119140625	1338.7666015625	-439.2430114746094	-179.7434692382812	1123.591918945312	-422.4291076660156	-171.7258911132812	1108.461669921875	-509.6795959472656	-272.6651916503906	883.5986938476562	-395.8653259277344	-181.4703979492188	871.8778686523438	-402.3114318847656	-178.0964813232422	1014.231689453125	-404.5083618164062	-275.5602416992188	697.6854248046875	-417.1473083496094	-194.7358856201172	800.9461669921875	-396.1520080566406	-263.3518371582031	803.3392944335938	-375.439453125	-373.4863891601562	1500.128662109375	-819.4445190429688	-377.9804992675781	1438.651123046875	-892.9683227539062	-363.3088073730469	1161.1904296875	-976.9826049804688	-331.4202575683594	1146.589721679688	-886.2301635742188	-484.6010437011719	925.9132690429688	-944.2353515625	-426.2770385742188	916.6233520507812	-1008.329895019531	-391.2389526367188	1089.133056640625	-994.3946533203125	-483.191650390625	737.36279296875	-928.083740234375	-508.6142883300781	830.8718872070312	-952.846923828125	-450.1657409667969	832.255859375	-1004.662170410156	-368.1781005859375	1691.276000976562	-700.2528686523438	-409.5562133789062	1698.475463867188	-486.0840759277344	-494.2699584960938	1712.29345703125	-580.78759765625	-270.6705627441406	1686.786254882812	-603.6151733398438	-247.4836273193359	976.8757934570312	-515.31201171875	-459.4013061523438	1019.298828125	-820.0407104492188	-502.4068603515625	1043.494506835938	-732.724365234375	-381.447509765625	1022.281555175781	-505.1742858886719	-350.4032592773438	473.83740234375	-500.5103454589844	-325.2982788085938	621.4059448242188	-494.2564392089844	-22.07156372070312	211.2417602539062	-718.8408203125	-189.6303558349609	331.6620483398438	-595.3765869140625	-161.1328735351562	60.00083923339844	-656.279052734375	-143.7790374755859	81.10580444335938	-714.92431640625	-64.01658630371094	135.2728118896484	-643.761474609375	-27.57809257507324	239.5802764892578	-796.9165649414062	-557.5741577148438	525.6812744140625	-743.3538818359375	-543.4554443359375	797.0383911132812	-784.0921630859375	-487.3353881835938	25.85254287719727	-793.8878784179688	-563.2098999023438	399.3946533203125	-724.6363525390625	-641.7510375976562	45.43099212646484	-636.3954467773438	-573.5806274414062	52.00414657592773	-629.4805908203125	-594.4300537109375	26.78702735900879	-754.0165405273438	-407.4486694335938	36.74947357177734	-767.5113525390625	
